<svg width="77" height="77" viewBox="0 0 77 77" fill="none" xmlns="http://www.w3.org/2000/svg">
<path d="M53.9004 0C66.6579 0.000211311 76.9998 10.3421 77 23.0996C77 28.052 75.4405 32.6396 72.7869 36.4001C71.9055 37.6493 71.9055 39.3507 72.7869 40.5999C75.4405 44.3604 77 48.948 77 53.9004C76.9998 66.6579 66.6579 76.9998 53.9004 77C48.948 77 44.3604 75.4405 40.5999 72.7869C39.3507 71.9055 37.6493 71.9055 36.4001 72.7869C32.6396 75.4405 28.052 77 23.0996 77C10.3421 76.9998 0.000211324 66.6579 0 53.9004C0 48.9482 1.55902 44.3604 4.21228 40.5998C5.09361 39.3507 5.09361 37.6493 4.21228 36.4002C1.55902 32.6397 0 28.0518 0 23.0996C0.000211324 10.3421 10.3421 0.000211311 23.0996 0C28.0518 0 32.6396 1.55902 36.4002 4.21228C37.6493 5.09361 39.3507 5.09361 40.5998 4.21228C44.3603 1.55902 48.9482 0 53.9004 0Z" fill="url(#paint0_linear_504_230)"/>
<g filter="url(#filter0_f_504_230)">
<path d="M25.0159 24.9841C25.6508 24.3498 27.2126 24.7412 29.3292 25.9179C34.7462 28.9295 41.3146 28.9295 46.7319 25.9183C48.8495 24.7413 50.4121 24.35 51.0469 24.9848C51.6813 25.6198 51.2898 27.1819 50.1128 29.2988C47.1009 34.7158 47.1009 41.2842 50.1128 46.7012C51.2898 48.8181 51.6814 50.3802 51.0469 51.0152C50.4121 51.65 48.8495 51.2587 46.7319 50.0817C41.3146 47.0705 34.7462 47.0705 29.3292 50.0821C27.2126 51.2588 25.6508 51.6502 25.0159 51.0159C24.3811 50.3811 24.7723 48.8188 25.949 46.7015C28.9599 41.2841 28.9599 34.7159 25.949 29.2985C24.7723 27.1812 24.3811 25.6189 25.0159 24.9841Z" fill="#101010"/>
</g>
<defs>
<filter id="filter0_f_504_230" x="23.7137" y="23.6824" width="28.6349" height="28.6353" filterUnits="userSpaceOnUse" color-interpolation-filters="sRGB">
<feFlood flood-opacity="0" result="BackgroundImageFix"/>
<feBlend mode="normal" in="SourceGraphic" in2="BackgroundImageFix" result="shape"/>
<feGaussianBlur stdDeviation="0.5" result="effect1_foregroundBlur_504_230"/>
</filter>
<linearGradient id="paint0_linear_504_230" x1="77" y1="8.5" x2="8.06017e-06" y2="66.5" gradientUnits="userSpaceOnUse">
<stop stop-color="#E9E6D3"/>
<stop offset="0.540894" stop-color="#E5DA80"/>
<stop offset="1" stop-color="#FCC720"/>
</linearGradient>
</defs>
</svg>
